<svg xmlns="http://www.w3.org/2000/svg" viewBox="0 0 80 80">
  <defs><clipPath id="c"><circle cx="40" cy="40" r="40"/></clipPath></defs>
  <g clip-path="url(#c)">
    <rect width="80" height="80" fill="#efeae6"/>
    <path d="M24 40c0-12 6-20 16-20s16 8 16 20c-4-8-10-10-16-10s-12 2-16 10z" fill="#3b2418"/>
    <ellipse cx="18.5" cy="50" rx="4" ry="6" fill="#c68642"/>
    <ellipse cx="61.5" cy="50" rx="4" ry="6" fill="#c68642"/>
    <path d="M30 66c2 8 18 8 20 0v16H30z" fill="#c68642"/>
    <path d="M12 82c8-16 16-18 28-18s20 2 28 18z" fill="#dfe7f5"/>
    <ellipse cx="40" cy="49" rx="20" ry="22.5" fill="#c68642"/>
    <path d="M28 41.5c2-2.2 5.2-2.4 7.2-.2" stroke="#4a3428" stroke-width="1.35" fill="none" stroke-linecap="round"/>
    <path d="M44.8 41.3c2-2.2 5.2-2 7.2.2" stroke="#4a3428" stroke-width="1.35" fill="none" stroke-linecap="round"/>
    
    <ellipse cx="32" cy="47" rx="2.15" ry="2.45" fill="#241910"/>
    <ellipse cx="48" cy="47" rx="2.15" ry="2.45" fill="#241910"/>
    <circle cx="32.7" cy="46.3" r="0.7" fill="#fff"/>
    <circle cx="48.7" cy="46.3" r="0.7" fill="#fff"/>
    <path d="M40 49c1.2 2.4 1.2 4.2-1 5.2" stroke="#e0a888" stroke-width="1.2" fill="none" stroke-linecap="round"/>
    <path d="M34 59c2 2.2 10 2.2 12 0" stroke="#e7b2a4" stroke-width="1.3" fill="none" stroke-linecap="round"/>
    <ellipse cx="27.5" cy="56" rx="3.4" ry="2" fill="#f0a090" opacity="0.4"/>
    <ellipse cx="52.5" cy="56" rx="3.4" ry="2" fill="#f0a090" opacity="0.4"/>
    <path d="M27 57c1 12 6 16 13 16s12-4 13-16c-4 6-8 8-13 8s-9-2-13-8z" fill="#3b2418" opacity="0.92"/>
    <path d="M24 34c4-12 10-14 16-14s12 2 16 14c-5-6-10-8-16-8s-11 2-16 8z" fill="#3b2418"/>
    
  </g>
</svg>
